<!DOCTYPE svg PUBLIC "-//W3C//DTD SVG 1.1//EN" "http://www.w3.org/Graphics/SVG/1.1/DTD/svg11.dtd">
<!-- Uploaded to: SVG Repo, www.svgrepo.com, Transformed by: SVG Repo Mixer Tools -->
<svg fill="#000000" version="1.1" id="Capa_1" xmlns="http://www.w3.org/2000/svg" xmlns:xlink="http://www.w3.org/1999/xlink" width="231px" height="231px" viewBox="0 0 52.43 52.43" xml:space="preserve" stroke="#000000" stroke-width="0.0005243">
<g id="SVGRepo_bgCarrier" stroke-width="0"/>
<g id="SVGRepo_tracerCarrier" stroke-linecap="round" stroke-linejoin="round"/>
<g id="SVGRepo_iconCarrier"> <g> <g> <path d="M31.613,24.618c1.604,0,2.796-0.405,3.606-1.204c0.863-0.845,1.298-2.145,1.298-3.855c0-2.944-1.556-4.5-4.498-4.5 c-0.319,0-0.586,0.012-0.805,0.028v9.529C31.356,24.618,31.495,24.618,31.613,24.618L31.613,24.618z"/> <path d="M0,37.749h14.93v2.938c-3.098,0.608-5.034,1.459-5.034,2.406v5.418h32.639v-5.418c0-0.946-1.938-1.798-5.034-2.406v-2.938 h14.93V3.919H0V37.749z M25.435,10.694l0.803-0.128c1.581-0.253,3.489-0.394,5.375-0.394c3.409,0,5.764,0.625,7.63,2.025 c2.147,1.596,3.287,4.098,3.287,7.234c0,4.102-1.72,6.441-3.161,7.68c-1.932,1.603-4.892,2.447-8.572,2.447 c-2.136,0-3.646-0.145-4.536-0.265l-0.826-0.109V10.694z M15.864,22.015H13.33v-4.684h2.483c0.763,0,1.976-0.26,1.976-0.958 c0-0.677-0.936-0.779-1.493-0.779c-1.141,0-2.383,0.511-2.941,0.852l-1.075,0.662l-1.324-4.697l0.595-0.382 c1.006-0.645,3.086-1.399,5.636-1.399c4.419,0,6.431,2.634,6.431,5.081c0,1.525-0.627,2.817-1.772,3.735 c1.449,0.905,2.333,2.432,2.333,4.216c0,3.587-3.106,5.999-7.731,5.999c-2.424,0-4.384-0.663-5.412-1.284l-0.615-0.37l1.295-4.802 l1.067,0.593c0.559,0.312,1.985,0.9,3.383,0.9c0.487,0,2.079-0.09,2.079-1.238C18.249,22.056,16.108,22.015,15.864,22.015z"/> </g> </g> </g>
</svg>